<svg width="36" height="36" viewBox="0 0 36 36" fill="none" xmlns="http://www.w3.org/2000/svg">
<path d="M0.0499878 8.00001C0.0499878 3.58173 3.63171 0 8.04999 0H27.24C31.6583 0 35.24 3.58172 35.24 8V27.19C35.24 31.6083 31.6583 35.19 27.24 35.19H8.04999C3.63172 35.19 0.0499878 31.6083 0.0499878 27.19V8.00001Z" fill="#E5A700"/>
<path d="M28.3962 17.3401C28.3962 22.6682 24.4861 27.094 19.3728 27.8674V20.4338H21.865L22.3376 17.3401H19.3728V15.3635C19.3728 14.5042 19.8025 13.6877 21.1345 13.6877H22.4666V11.0667C22.4666 11.0667 21.2634 10.8518 20.0603 10.8518C17.6541 10.8518 16.0642 12.3557 16.0642 15.0198V17.3401H13.3572V20.4338H16.0642V27.8674C10.9509 27.094 7.08374 22.6682 7.08374 17.3401C7.08374 11.4534 11.8533 6.68384 17.74 6.68384C23.6267 6.68384 28.3962 11.4534 28.3962 17.3401Z" fill="black"/>
</svg>
