<svg width="36" height="36" viewBox="0 0 36 36" fill="none" xmlns="http://www.w3.org/2000/svg">
<path d="M0.23999 8.00001C0.23999 3.58173 3.82171 0 8.23999 0H27.43C31.8483 0 35.43 3.58172 35.43 8V27.19C35.43 31.6083 31.8483 35.19 27.43 35.19H8.24C3.82172 35.19 0.23999 31.6083 0.23999 27.19V8.00001Z" fill="#E5A700"/>
<path d="M17.935 12.3987C20.642 12.3987 22.8764 14.6331 22.8764 17.3401C22.8764 20.0901 20.642 22.2815 17.935 22.2815C15.185 22.2815 12.9936 20.0901 12.9936 17.3401C12.9936 14.6331 15.185 12.3987 17.935 12.3987ZM17.935 20.5627C19.6967 20.5627 21.1147 19.1448 21.1147 17.3401C21.1147 15.5784 19.6967 14.1604 17.935 14.1604C16.1303 14.1604 14.7123 15.5784 14.7123 17.3401C14.7123 19.1448 16.1733 20.5627 17.935 20.5627ZM24.2084 12.2268C24.2084 12.8713 23.6928 13.387 23.0483 13.387C22.4037 13.387 21.8881 12.8713 21.8881 12.2268C21.8881 11.5823 22.4037 11.0667 23.0483 11.0667C23.6928 11.0667 24.2084 11.5823 24.2084 12.2268ZM27.4741 13.387C27.56 14.9768 27.56 19.7463 27.4741 21.3362C27.3881 22.8831 27.0444 24.2151 25.9272 25.3752C24.81 26.4924 23.435 26.8362 21.8881 26.9221C20.2983 27.0081 15.5287 27.0081 13.9389 26.9221C12.392 26.8362 11.06 26.4924 9.89984 25.3752C8.78265 24.2151 8.4389 22.8831 8.35296 21.3362C8.26702 19.7463 8.26702 14.9768 8.35296 13.387C8.4389 11.8401 8.78265 10.4651 9.89984 9.3479C11.06 8.23071 12.392 7.88696 13.9389 7.80103C15.5287 7.71509 20.2983 7.71509 21.8881 7.80103C23.435 7.88696 24.81 8.23071 25.9272 9.3479C27.0444 10.4651 27.3881 11.8401 27.4741 13.387ZM25.4116 23.012C25.9272 21.7659 25.7983 18.7581 25.7983 17.3401C25.7983 15.9651 25.9272 12.9573 25.4116 11.6682C25.0678 10.8518 24.4233 10.1643 23.6069 9.86353C22.3178 9.3479 19.31 9.47681 17.935 9.47681C16.517 9.47681 13.5092 9.3479 12.2631 9.86353C11.4037 10.2073 10.7592 10.8518 10.4155 11.6682C9.89984 12.9573 10.0287 15.9651 10.0287 17.3401C10.0287 18.7581 9.89984 21.7659 10.4155 23.012C10.7592 23.8713 11.4037 24.5159 12.2631 24.8596C13.5092 25.3752 16.517 25.2463 17.935 25.2463C19.31 25.2463 22.3178 25.3752 23.6069 24.8596C24.4233 24.5159 25.1108 23.8713 25.4116 23.012Z" fill="black"/>
</svg>
