<svg width="36" height="36" viewBox="0 0 36 36" fill="none" xmlns="http://www.w3.org/2000/svg">
<path d="M0.809982 8.00001C0.809982 3.58173 4.3917 0 8.80998 0H28C32.4183 0 36 3.58172 36 8V27.19C36 31.6083 32.4183 35.19 28 35.19H8.80999C4.39171 35.19 0.809982 31.6083 0.809982 27.19V8.00001Z" fill="#E5A700"/>
<path d="M26.745 7.71509C27.4755 7.71509 28.12 8.35962 28.12 9.13306V25.5901C28.12 26.3635 27.4755 26.9651 26.745 26.9651H10.202C9.47155 26.9651 8.86999 26.3635 8.86999 25.5901V9.13306C8.86999 8.35962 9.47155 7.71509 10.202 7.71509H26.745ZM14.6708 24.2151V15.0627H11.8348V24.2151H14.6708ZM13.2528 13.7737C14.1551 13.7737 14.8856 13.0432 14.8856 12.1409C14.8856 11.2385 14.1551 10.4651 13.2528 10.4651C12.3075 10.4651 11.577 11.2385 11.577 12.1409C11.577 13.0432 12.3075 13.7737 13.2528 13.7737ZM25.37 24.2151V19.1877C25.37 16.7385 24.8114 14.8049 21.9325 14.8049C20.5575 14.8049 19.6122 15.5784 19.2255 16.3088H19.1825V15.0627H16.4755V24.2151H19.3114V19.7034C19.3114 18.5002 19.5262 17.3401 21.0301 17.3401C22.4911 17.3401 22.4911 18.7151 22.4911 19.7463V24.2151H25.37Z" fill="black"/>
</svg>
