<svg width="36" height="36" viewBox="0 0 36 36" fill="none" xmlns="http://www.w3.org/2000/svg">
<path d="M0.61998 8.00001C0.61998 3.58173 4.2017 0 8.61998 0H27.81C32.2283 0 35.81 3.58172 35.81 8V27.19C35.81 31.6083 32.2283 35.19 27.81 35.19H8.61999C4.20171 35.19 0.61998 31.6083 0.61998 27.19V8.00001Z" fill="#E5A700"/>
<g clip-path="url(#clip0_86_19)">
<path d="M24.9213 11.6888C24.7821 11.6168 24.6465 11.5379 24.5152 11.4524C24.1333 11.2 23.7832 10.9025 23.4724 10.5664C22.6946 9.67653 22.4042 8.77376 22.2972 8.14169H22.3015C22.2121 7.61704 22.249 7.27759 22.2546 7.27759H18.7123V20.9752C18.7123 21.1591 18.7123 21.3408 18.7045 21.5204C18.7045 21.5428 18.7024 21.5634 18.7011 21.5875C18.7011 21.5974 18.7011 21.6077 18.699 21.618C18.699 21.6206 18.699 21.6231 18.699 21.6257C18.6616 22.1172 18.5041 22.5919 18.2402 23.0082C17.9763 23.4245 17.6141 23.7696 17.1856 24.0131C16.739 24.2672 16.2338 24.4004 15.7199 24.3998C14.0695 24.3998 12.7319 23.054 12.7319 21.392C12.7319 19.7299 14.0695 18.3842 15.7199 18.3842C16.0324 18.3839 16.3428 18.433 16.6399 18.5298L16.6442 14.923C15.7424 14.8065 14.8263 14.8782 13.9536 15.1335C13.081 15.3888 12.2707 15.8222 11.5739 16.4063C10.9633 16.9368 10.45 17.5698 10.0571 18.2767C9.90755 18.5345 9.34337 19.5705 9.27505 21.2519C9.23208 22.2062 9.51868 23.1949 9.65532 23.6036V23.6122C9.74126 23.8528 10.0743 24.6739 10.617 25.3661C11.0546 25.9214 11.5716 26.4092 12.1514 26.8138V26.8052L12.16 26.8138C13.8749 27.9791 15.7762 27.9026 15.7762 27.9026C16.1054 27.8893 17.2079 27.9026 18.4601 27.3092C19.8488 26.6513 20.6394 25.6712 20.6394 25.6712C21.1445 25.0856 21.5461 24.4182 21.8271 23.6977C22.1476 22.855 22.2546 21.8444 22.2546 21.4405V14.1736C22.2976 14.1994 22.8699 14.578 22.8699 14.578C22.8699 14.578 23.6945 15.1065 24.981 15.4507C25.904 15.6956 27.1475 15.7472 27.1475 15.7472V12.2306C26.7118 12.2779 25.827 12.1404 24.9213 11.6888Z" fill="black"/>
</g>
<defs>
<clipPath id="clip0_86_19">
<rect width="22" height="22" fill="white" transform="translate(7.20998 6.59009)"/>
</clipPath>
</defs>
</svg>
