<svg width="36" height="36" viewBox="0 0 36 36" fill="none" xmlns="http://www.w3.org/2000/svg">
<path d="M0.429993 8.00001C0.429993 3.58173 4.01171 0 8.42999 0H27.62C32.0383 0 35.62 3.58172 35.62 8V27.19C35.62 31.6083 32.0383 35.19 27.62 35.19H8.43C4.01172 35.19 0.429993 31.6083 0.429993 27.19V8.00001Z" fill="#E5A700"/>
<path d="M29.3398 11.7112C29.8555 13.5159 29.8555 17.3831 29.8555 17.3831C29.8555 17.3831 29.8555 21.2073 29.3398 23.0549C29.082 24.0862 28.2656 24.8596 27.2773 25.1174C25.4297 25.5901 18.125 25.5901 18.125 25.5901C18.125 25.5901 10.7773 25.5901 8.92968 25.1174C7.9414 24.8596 7.12499 24.0862 6.86718 23.0549C6.35156 21.2073 6.35156 17.3831 6.35156 17.3831C6.35156 17.3831 6.35156 13.5159 6.86718 11.7112C7.12499 10.6799 7.9414 9.86353 8.92968 9.60571C10.7773 9.09009 18.125 9.09009 18.125 9.09009C18.125 9.09009 25.4297 9.09009 27.2773 9.60571C28.2656 9.86353 29.082 10.6799 29.3398 11.7112ZM15.7187 20.8635L21.8203 17.3831L15.7187 13.9026V20.8635Z" fill="black"/>
</svg>
